<svg width="2000" height="1200" viewBox="0 0 2000 1200" fill="none" xmlns="http://www.w3.org/2000/svg">
<g clip-path="url(#clip0_14_2)">
<rect width="2000" height="1200" fill="white"/>
<path d="M234.844 0.703062C235.234 1.01556 361.797 77.0312 516.016 169.531C670.313 262.109 797.266 338.281 798.281 338.906L800 340V170V-6.29425e-05H517.031C358.906 -6.29425e-05 234.375 0.312437 234.844 0.703062Z" fill="#00247D"/>
<path d="M880.313 240L880.078 480.078L440.078 480.312L0 480.469V600V719.531L440.078 719.688L880.078 719.922L880.313 959.922L880.469 1200H1000H1119.53L1119.69 959.922L1119.92 719.922L1560 719.688L2000 719.531V600V480.469L1560 480.312L1119.92 480.078L1119.69 240L1119.53 0H1000H880.469L880.313 240Z" fill="#CF142B"/>
<path d="M1200 170V340L1203.36 338.047C1205.16 336.953 1332.66 260.469 1486.72 168.047L1766.8 -6.29425e-05H1483.44H1200V170Z" fill="#00247D"/>
<path d="M0 270.234V400H216.562C397.734 400 432.891 399.844 431.641 398.984C428.359 396.797 2.42188 141.406 1.25 140.937C0.078125 140.469 0 151.953 0 270.234Z" fill="#00247D"/>
<path d="M1782.81 270.312L1566.8 400H1783.44H2000V270.312C2000 198.984 1999.77 140.625 1999.45 140.625C1999.06 140.703 1901.64 199.062 1782.81 270.312Z" fill="#00247D"/>
<path d="M0 929.766C0 1048.05 0.078125 1059.53 1.25 1059.06C2.42188 1058.59 428.359 803.203 431.641 801.016C432.891 800.156 397.734 800 216.562 800H0V929.766Z" fill="#00247D"/>
<path d="M1782.42 929.375C1901.02 1000.55 1998.52 1058.98 1999.06 1059.14C1999.77 1059.45 2000 1033.28 2000 929.766V800H1783.44H1566.8L1782.42 929.375Z" fill="#00247D"/>
<path d="M516.875 1029.92L234.141 1199.61L516.797 1199.84C672.266 1199.92 799.609 1199.92 799.766 1199.77C799.922 1199.61 799.922 1123.13 799.844 1029.92L799.609 860.313L516.875 1029.92Z" fill="#00247D"/>
<path d="M1200 1030V1200H1483.44H1766.8L1486.72 1031.95C1332.66 939.531 1205.16 863.047 1203.36 861.953L1200 860V1030Z" fill="#00247D"/>
</g>
<defs>
<clipPath id="clip0_14_2">
<rect width="2000" height="1200" fill="white"/>
</clipPath>
</defs>
</svg>
